<svg width="152" height="152" viewBox="0 0 152 152" fill="none" xmlns="http://www.w3.org/2000/svg">
<circle cx="76" cy="76" r="75" fill="white" stroke="#870000" stroke-width="2"/>
<path d="M55.328 115.152H59.04V110.832C59.04 110.149 58.8907 109.669 58.592 109.392C58.3147 109.093 57.8347 108.944 57.152 108.944H55.328C54.6453 108.944 54.1653 109.093 53.888 109.392C53.6107 109.669 53.472 110.149 53.472 110.832V113.296C53.472 113.957 53.6107 114.437 53.888 114.736C54.1653 115.013 54.6453 115.152 55.328 115.152ZM57.792 126H51.04C50.5707 126 50.336 125.776 50.336 125.328V123.12C50.336 122.693 50.5707 122.48 51.04 122.48H57.152C57.8347 122.48 58.3147 122.341 58.592 122.064C58.8693 121.765 59.008 121.275 59.008 120.592V118.672H54.656C52.9707 118.672 51.6693 118.224 50.752 117.328C49.8347 116.432 49.376 115.152 49.376 113.488V110.64C49.376 108.955 49.8347 107.664 50.752 106.768C51.6693 105.872 52.9707 105.424 54.656 105.424H57.792C59.4773 105.424 60.7787 105.872 61.696 106.768C62.6133 107.664 63.072 108.955 63.072 110.64V120.784C63.072 122.469 62.6133 123.76 61.696 124.656C60.7787 125.552 59.4773 126 57.792 126ZM72.4605 122.48H74.3485C75.0312 122.48 75.5112 122.341 75.7885 122.064C76.0658 121.765 76.2045 121.275 76.2045 120.592V110.832C76.2045 110.149 76.0658 109.669 75.7885 109.392C75.5112 109.093 75.0312 108.944 74.3485 108.944H72.4605C71.7778 108.944 71.2978 109.093 71.0205 109.392C70.7432 109.669 70.6045 110.149 70.6045 110.832V120.592C70.6045 121.275 70.7432 121.765 71.0205 122.064C71.2978 122.341 71.7778 122.48 72.4605 122.48ZM74.9885 126H71.7885C70.1032 126 68.8018 125.552 67.8845 124.656C66.9672 123.76 66.5085 122.469 66.5085 120.784V110.64C66.5085 108.955 66.9672 107.664 67.8845 106.768C68.8018 105.872 70.1032 105.424 71.7885 105.424H74.9885C76.6525 105.424 77.9432 105.883 78.8605 106.8C79.7778 107.696 80.2365 108.976 80.2365 110.64V120.784C80.2365 122.448 79.7778 123.739 78.8605 124.656C77.9432 125.552 76.6525 126 74.9885 126ZM100.113 118.48H99.3768C98.9074 118.48 98.5874 118.576 98.4167 118.768C98.2461 118.939 98.1608 119.248 98.1608 119.696V122.48C98.1608 122.949 98.2461 123.28 98.4167 123.472C98.5874 123.643 98.9074 123.728 99.3768 123.728H100.113C100.561 123.728 100.87 123.632 101.041 123.44C101.233 123.248 101.329 122.928 101.329 122.48V119.696C101.329 119.248 101.243 118.939 101.073 118.768C100.902 118.576 100.582 118.48 100.113 118.48ZM98.7688 116.208H100.657C101.766 116.208 102.609 116.496 103.185 117.072C103.761 117.648 104.049 118.48 104.049 119.568V122.64C104.049 123.728 103.761 124.56 103.185 125.136C102.609 125.712 101.766 126 100.657 126H98.7688C97.6808 126 96.8381 125.712 96.2408 125.136C95.6648 124.56 95.3768 123.728 95.3768 122.64V119.568C95.3768 118.48 95.6648 117.648 96.2408 117.072C96.8381 116.496 97.6808 116.208 98.7688 116.208ZM88.2728 107.664H87.5368C87.0674 107.664 86.7474 107.76 86.5768 107.952C86.4061 108.123 86.3208 108.443 86.3208 108.912V111.696C86.3208 112.144 86.4061 112.464 86.5768 112.656C86.7474 112.827 87.0674 112.912 87.5368 112.912H88.2728C88.7421 112.912 89.0621 112.827 89.2328 112.656C89.4034 112.464 89.4888 112.144 89.4888 111.696V108.912C89.4888 108.464 89.3928 108.144 89.2008 107.952C89.0301 107.76 88.7208 107.664 88.2728 107.664ZM86.9608 105.392H88.8488C89.9581 105.392 90.8008 105.68 91.3767 106.256C91.9528 106.832 92.2408 107.664 92.2408 108.752V111.824C92.2408 112.912 91.9528 113.744 91.3767 114.32C90.8008 114.896 89.9581 115.184 88.8488 115.184H86.9608C85.8728 115.184 85.0301 114.896 84.4328 114.32C83.8568 113.744 83.5688 112.912 83.5688 111.824V108.752C83.5688 107.664 83.8568 106.832 84.4328 106.256C85.0301 105.68 85.8728 105.392 86.9608 105.392ZM90.6408 126H88.9768C88.4861 126 88.3261 125.776 88.4968 125.328C89.1794 123.579 90.4488 120.379 92.3048 115.728C94.1608 111.056 95.4301 107.845 96.1128 106.096C96.3048 105.648 96.5821 105.424 96.9448 105.424H98.6408C99.1314 105.424 99.2914 105.648 99.1208 106.096L91.5048 125.328C91.3341 125.776 91.0461 126 90.6408 126Z" fill="black"/>
<g clip-path="url(#clip0_0_1)">
<path d="M83.3889 34.8888V32.1671C83.3942 32.0117 83.3687 31.8568 83.3141 31.7112C83.2594 31.5656 83.1766 31.4322 83.0704 31.3186C82.9642 31.2051 82.8366 31.1136 82.6949 31.0493C82.5533 30.9851 82.4004 30.9494 82.245 30.9443H68.755C68.5996 30.9494 68.4467 30.9851 68.3051 31.0493C68.1634 31.1136 68.0358 31.2051 67.9296 31.3186C67.8234 31.4322 67.7406 31.5656 67.6859 31.7112C67.6313 31.8568 67.6058 32.0117 67.6111 32.1671V34.8888H59.7222C59.1901 34.9328 58.6935 35.1733 58.3289 35.5633C57.9643 35.9534 57.758 36.4652 57.75 36.9991V92.2213C57.785 92.7201 58.0081 93.1869 58.3743 93.5274C58.7404 93.8679 59.2222 94.0567 59.7222 94.0554H91.2778C91.781 94.0564 92.2655 93.8649 92.6321 93.5202C92.9988 93.1756 93.2198 92.7038 93.25 92.2016V36.9793C93.2372 36.4489 93.0287 35.942 92.6646 35.556C92.3005 35.1701 91.8066 34.9324 91.2778 34.8888H83.3889ZM79.9572 77.1732C80.2371 77.7355 80.2821 78.386 80.0823 78.9814C79.8826 79.5769 79.4545 80.0687 78.8922 80.3485C78.3299 80.6283 77.6795 80.6733 77.084 80.4736C76.4885 80.2739 75.9968 79.8458 75.7169 79.2835L64.9486 57.6877L76.7819 59.6599L72.2656 51.771C72.1102 51.5016 72.0093 51.2043 71.9688 50.896C71.9284 50.5877 71.949 50.2744 72.0296 49.9741C72.1101 49.6737 72.2491 49.3922 72.4385 49.1455C72.6279 48.8989 72.864 48.692 73.1333 48.5366C73.4027 48.3812 73.7 48.2803 74.0083 48.2398C74.3167 48.1994 74.6299 48.22 74.9303 48.3006C75.2306 48.3812 75.5122 48.5201 75.7588 48.7095C76.0055 48.8989 76.2124 49.135 76.3678 49.4043L85.8936 65.9118L73.3306 63.8804L79.9572 77.1732Z" fill="black"/>
</g>
<defs>
<clipPath id="clip0_0_1">
<rect width="71" height="71" fill="white" transform="translate(40 27)"/>
</clipPath>
</defs>
</svg>
