<svg width="152" height="152" viewBox="0 0 152 152" fill="none" xmlns="http://www.w3.org/2000/svg">
<circle cx="76" cy="76" r="75" fill="white" stroke="#870000" stroke-width="2"/>
<path d="M25.6793 85.48H27.5673C28.2499 85.48 28.7299 85.3413 29.0073 85.064C29.2846 84.7653 29.4233 84.2747 29.4233 83.592V73.832C29.4233 73.1493 29.2846 72.6693 29.0073 72.392C28.7299 72.0933 28.2499 71.944 27.5673 71.944H25.6793C24.9966 71.944 24.5166 72.0933 24.2393 72.392C23.9619 72.6693 23.8233 73.1493 23.8233 73.832V83.592C23.8233 84.2747 23.9619 84.7653 24.2393 85.064C24.5166 85.3413 24.9966 85.48 25.6793 85.48ZM28.2073 89H25.0073C23.3219 89 22.0206 88.552 21.1033 87.656C20.1859 86.76 19.7273 85.4693 19.7273 83.784V73.64C19.7273 71.9547 20.1859 70.664 21.1033 69.768C22.0206 68.872 23.3219 68.424 25.0073 68.424H28.2073C29.8713 68.424 31.1619 68.8827 32.0793 69.8C32.9966 70.696 33.4553 71.976 33.4553 73.64V83.784C33.4553 85.448 32.9966 86.7387 32.0793 87.656C31.1619 88.552 29.8713 89 28.2073 89ZM40.4995 84.392V88.328C40.4995 88.776 40.2968 89 39.8915 89H37.0435C36.6168 89 36.4035 88.776 36.4035 88.328V84.424C36.4035 83.9973 36.6168 83.784 37.0435 83.784H39.8915C40.2968 83.784 40.4995 83.9867 40.4995 84.392ZM43.2228 88.328V85.288C43.2228 84.072 43.7454 83.0373 44.7908 82.184L50.6788 77.192C51.6388 76.4027 52.1188 75.5493 52.1188 74.632V73.672C52.1188 73.0107 51.9588 72.5413 51.6388 72.264C51.3401 71.9653 50.8388 71.816 50.1348 71.816H49.0148C48.3321 71.816 47.8521 71.9653 47.5748 72.264C47.2974 72.5413 47.1588 73.0107 47.1588 73.672V74.696C47.1588 75.1653 46.9348 75.4 46.4868 75.4H43.7668C43.3188 75.4 43.0948 75.1653 43.0948 74.696V73.608C43.0948 71.944 43.5534 70.664 44.4708 69.768C45.3881 68.872 46.6894 68.424 48.3748 68.424H50.8068C52.4921 68.424 53.7934 68.872 54.7108 69.768C55.6281 70.664 56.0868 71.944 56.0868 73.608V74.888C56.0868 76.552 55.4468 77.928 54.1668 79.016L48.1508 84.136C47.8948 84.3707 47.7668 84.6267 47.7668 84.904V85.416H55.4148C55.8628 85.416 56.0868 85.64 56.0868 86.088V88.328C56.0868 88.776 55.8628 89 55.4148 89H43.8948C43.4468 89 43.2228 88.776 43.2228 88.328ZM59.004 88.328V85.288C59.004 84.072 59.5267 83.0373 60.572 82.184L66.46 77.192C67.42 76.4027 67.9 75.5493 67.9 74.632V73.672C67.9 73.0107 67.74 72.5413 67.42 72.264C67.1213 71.9653 66.62 71.816 65.916 71.816H64.796C64.1133 71.816 63.6333 71.9653 63.356 72.264C63.0787 72.5413 62.94 73.0107 62.94 73.672V74.696C62.94 75.1653 62.716 75.4 62.268 75.4H59.548C59.1 75.4 58.876 75.1653 58.876 74.696V73.608C58.876 71.944 59.3347 70.664 60.252 69.768C61.1693 68.872 62.4707 68.424 64.156 68.424H66.588C68.2733 68.424 69.5747 68.872 70.492 69.768C71.4093 70.664 71.868 71.944 71.868 73.608V74.888C71.868 76.552 71.228 77.928 69.948 79.016L63.932 84.136C63.676 84.3707 63.548 84.6267 63.548 84.904V85.416H71.196C71.644 85.416 71.868 85.64 71.868 86.088V88.328C71.868 88.776 71.644 89 71.196 89H59.676C59.228 89 59.004 88.776 59.004 88.328ZM85.4645 89H82.7445C82.2965 89 82.0725 88.776 82.0725 88.328V73.352C82.0725 72.904 82.2965 72.68 82.7445 72.68H85.4645C85.9125 72.68 86.1365 72.904 86.1365 73.352V74.408H86.2645C86.5205 73.896 86.9472 73.48 87.5445 73.16C88.1632 72.84 88.8672 72.68 89.6565 72.68H90.5525C92.4085 72.68 93.7418 73.3627 94.5525 74.728C95.2778 73.3627 96.5258 72.68 98.2965 72.68H99.2245C100.867 72.68 102.105 73.128 102.937 74.024C103.79 74.92 104.217 76.2107 104.217 77.896V88.328C104.217 88.776 103.993 89 103.545 89H100.825C100.377 89 100.153 88.776 100.153 88.328V78.088C100.153 77.4053 100.014 76.9253 99.7365 76.648C99.4592 76.3493 98.9792 76.2 98.2965 76.2H97.4965C96.0245 76.2 95.2885 77.0213 95.2885 78.664V88.328C95.2885 88.776 95.0538 89 94.5845 89H91.8965C91.4485 89 91.2245 88.776 91.2245 88.328V78.088C91.2245 77.4053 91.0752 76.9253 90.7765 76.648C90.4992 76.3493 90.0192 76.2 89.3365 76.2H88.3445C86.8725 76.2 86.1365 77.0107 86.1365 78.632V88.328C86.1365 88.776 85.9125 89 85.4645 89ZM109.812 89H107.348C106.836 89 106.665 88.776 106.836 88.328C107.518 86.5787 108.734 83.3787 110.484 78.728C112.233 74.0773 113.449 70.8667 114.132 69.096C114.324 68.648 114.612 68.424 114.996 68.424H117.46C117.972 68.424 118.142 68.648 117.972 69.096L110.676 88.328C110.505 88.776 110.217 89 109.812 89ZM126.874 89H120.794C120.367 89 120.154 88.776 120.154 88.328V86.28C120.154 86.0453 120.196 85.8853 120.282 85.8C120.367 85.6933 120.538 85.64 120.794 85.64H126.138C127.183 85.64 127.706 85.32 127.706 84.68V84.52C127.706 84.008 127.268 83.5173 126.394 83.048L123.226 81.288C122.138 80.7333 121.338 80.136 120.826 79.496C120.314 78.856 120.058 78.0347 120.058 77.032C120.058 75.5387 120.452 74.44 121.242 73.736C122.031 73.032 123.268 72.68 124.954 72.68H130.298C130.724 72.68 130.938 72.904 130.938 73.352V75.432C130.938 75.6667 130.895 75.8373 130.81 75.944C130.724 76.0293 130.554 76.072 130.298 76.072H125.85C124.804 76.072 124.282 76.3387 124.282 76.872V77.032C124.282 77.5013 124.74 77.9813 125.658 78.472L128.89 80.392C129.999 80.9893 130.778 81.608 131.226 82.248C131.674 82.8667 131.898 83.688 131.898 84.712C131.898 87.5707 130.223 89 126.874 89Z" fill="black"/>
<path d="M73.2083 33.7916H61.7499C61.1006 33.7916 60.5567 33.5716 60.1183 33.1316C59.6798 32.6916 59.4598 32.1477 59.4583 31.4999C59.4567 30.8521 59.6767 30.3083 60.1183 29.8683C60.5598 29.4283 61.1037 29.2083 61.7499 29.2083H73.2083V17.7499C73.2083 17.1006 73.4283 16.5567 73.8683 16.1183C74.3083 15.6798 74.8521 15.4598 75.4999 15.4583C76.1477 15.4567 76.6924 15.6767 77.1339 16.1183C77.5754 16.5598 77.7947 17.1037 77.7916 17.7499V29.2083H89.2499C89.8992 29.2083 90.4439 29.4283 90.8839 29.8683C91.3239 30.3083 91.5431 30.8521 91.5416 31.4999C91.5401 32.1477 91.3201 32.6924 90.8816 33.1339C90.4431 33.5754 89.8992 33.7947 89.2499 33.7916H77.7916V45.2499C77.7916 45.8992 77.5716 46.4439 77.1316 46.8839C76.6916 47.3239 76.1477 47.5431 75.4999 47.5416C74.8521 47.5401 74.3083 47.3201 73.8683 46.8816C73.4283 46.4431 73.2083 45.8992 73.2083 45.2499V33.7916Z" fill="#870000"/>
<path fill-rule="evenodd" clip-rule="evenodd" d="M58.8501 123.5C58.8501 123.009 59.045 122.539 59.392 122.192C59.7389 121.845 60.2094 121.65 60.7001 121.65H90.3001C90.7908 121.65 91.2613 121.845 91.6082 122.192C91.9552 122.539 92.1501 123.009 92.1501 123.5C92.1501 123.991 91.9552 124.461 91.6082 124.808C91.2613 125.155 90.7908 125.35 90.3001 125.35H60.7001C60.2094 125.35 59.7389 125.155 59.392 124.808C59.045 124.461 58.8501 123.991 58.8501 123.5Z" fill="#870000"/>
</svg>
